<svg xmlns="http://www.w3.org/2000/svg" width="402.545" height="171.423" viewBox="0 0 402.545 171.423"><g transform="translate(-727.032 -45)"><text transform="translate(736 76)" font-size="33" font-family="Alice-Regular, Alice"><tspan x="0" y="0">Brian Demonstrativo</tspan></text><path d="M1121.478,171.229s2.126,8.207-4.156,8.713-377.071,0-377.071,0-8.523.709-5.382-12.361S1121.478,171.229,1121.478,171.229Z" transform="translate(0 -20)" fill="#895220"/><path d="M33.348,21.772l383.573.9a3.519,3.519,0,0,1,1.753.57,3.526,3.526,0,0,1,1,1.552l7,52.434a3.914,3.914,0,0,1-.861,2.467,3.666,3.666,0,0,1-2.51.48L26.493,76.661a3.208,3.208,0,0,1-1.83-.863,3.422,3.422,0,0,1-.529-2Z" transform="translate(702.901 90.824)" fill="rgba(0,0,0,0.16)"/><g transform="translate(0 -20)"><path d="M974.545,175.081s13.917,10.328,29.973,9.483,24.65-9.765,32.755-11.386,25.532-3.242,25.067,4.932-6.059,6.454-6.059,6.454,29.109,5.664,22.391-16.728-46.1-7.771-46.1-7.771l-60.984,10.8Z" fill="#a16a38"/><path d="M996.353,117.431c.06-.3,0-13.069,0-13.069s-34.652-6.355-36.93,12.47S996.353,117.431,996.353,117.431Z" fill="#a16a38" stroke="#707070" stroke-width="1"/><path d="M744.082,117.808v-4.545h-6.3v-7.148h31.59s13.973-.15,14.757,10.976-4.151,12.371-4.151,12.371Z" fill="#a16a38"/><path d="M947.32,170.306l67.635,66.117-44.22-70.589Z" fill="#a16a38"/><path d="M32.977,21.772l368.138.866a3.378,3.378,0,0,1,1.683.547,3.385,3.385,0,0,1,.957,1.49L410.478,75a3.756,3.756,0,0,1-.826,2.367,3.518,3.518,0,0,1-2.409.46L26.4,74.452a3.079,3.079,0,0,1-1.756-.828,3.284,3.284,0,0,1-.508-1.917Z" transform="translate(711 96)" fill="#a16a38"/><g transform="translate(-19 -61)"><path d="M976.168,238.222s-9.219,14.555-24.938,8.425-13.759-16.816-13.759-16.816l6.335-12.671Z" fill="#a16a38"/><g transform="translate(753 94)"><path d="M214.24,134.867l8.942.483-6.625-8.933a65.114,65.114,0,0,1-4.61-7.206l-3.748-8.933h-2.878v8.933c0,3.746.574,5.764,1.438,5.764h3.46v2.306H192.64v-2.306h2.594a.619.619,0,0,0,.574-.576V95.583a5.9,5.9,0,0,0-.574-3.17,2.207,2.207,0,0,0-1.442-.576H191.2V89.532h19.019a18.845,18.845,0,0,1,7.2,1.442c4.036,2.018,6.052,5.188,6.052,10.085a7.617,7.617,0,0,1-1.442,4.034,8.777,8.777,0,0,1-6.34,3.458c1.154,2.018,6.918,11.239,17.579,27.374l8.641.29-6.34-7.491c-3.744-4.9-5.759-8.645-6.052-10.661a10.513,10.513,0,0,1,2.02-7.491c1.728-2.018,4.32-2.882,7.491-2.882,4.324,0,7.2,3.746,8.641,11.525-2.3-5.764-6.052-7.779-10.949-5.764a4.883,4.883,0,0,0-2.882,2.306l-.288,1.73a6.114,6.114,0,0,0,2.882,5.188,11.533,11.533,0,0,0,7.779,2.592,13.1,13.1,0,0,0,7.779-2.306,9.822,9.822,0,0,0,3.17-7.2,6.936,6.936,0,0,0-2.016-5.186,20.669,20.669,0,0,0-5.19-2.882l-6.625-2.306a28.222,28.222,0,0,1-6.052-3.458,13.436,13.436,0,0,1,1.44-22.186,22.416,22.416,0,0,1,13.257-3.746,36.664,36.664,0,0,1,10.661,1.44l.574,6.918c.288,1.152-.288,1.73-1.154,1.73s-1.438-.576-1.728-1.73a5.7,5.7,0,0,0-3.17-3.746,12.968,12.968,0,0,0-11.813.576,7.136,7.136,0,0,0-3.174,6.052,5.187,5.187,0,0,0,2.02,4.324,14.812,14.812,0,0,0,4.9,2.592l6.625,2.594a26.522,26.522,0,0,1,6.918,3.746,16.346,16.346,0,0,1,3.458,5.186,15.462,15.462,0,0,1,1.442,6.052q0,9.941-6.913,13.833c-4.036,2.016-10.375,3.17-18.733,3.17-.574,0-.288.864.866,2.306a17.141,17.141,0,0,0,4.324,5.188l22.764,1.152,19.017,2.306q-.432,1.3-34.58,2.594a35.361,35.361,0,0,0,9.8,4.034,37.935,37.935,0,0,0,16.135,0,59.4,59.4,0,0,0,11.241-5.188,93.173,93.173,0,0,1,12.391-6.052,60.242,60.242,0,0,1,19.883-2.882c5.764,0,10.375.866,13.831,2.882,2.882,1.728,4.61,3.746,5.19,6.342a7.717,7.717,0,0,1-1.442,6.625c-1.732,2.018-4.324,2.882-7.491,2.882,5.474-7.779.862-12.679-13.831-14.407a46.288,46.288,0,0,0-12.681.864,33.581,33.581,0,0,0-10.083,3.746L286,145.443a31.982,31.982,0,0,1-9.8,3.17,40.412,40.412,0,0,1-18.441-1.728,55.265,55.265,0,0,1-9.221-4.61l-10.949.288,22.472,34.29-17-16.423c-.862,0-5.474-5.476-13.831-16.715l-.574-.864-10.949.563v.3c0,.019-.034.263-.038.28l0,.017a8.047,8.047,0,0,1-.887,2.115l0,0a10.038,10.038,0,0,1-4.669,3.828l-.034.017a13.564,13.564,0,0,1-2.52.818,14.9,14.9,0,0,1-7.143-.2l-.013,0a17.537,17.537,0,0,1-2.7-.986,15.79,15.79,0,0,1-5.354-3.985h0a10.117,10.117,0,0,1-2.215-3.895,7.758,7.758,0,0,1-.046-4.048l0-.017a7.571,7.571,0,0,1,.889-2.112l0,0a10.024,10.024,0,0,1,4.664-3.828l.1-.042.038-.013c.374-.122.771-.238,1.2-.345v0q.615-.155,1.265-.265a16.427,16.427,0,0,1,7.042.307,13.839,13.839,0,0,1,1.787.4,12.618,12.618,0,0,1,4.16,2.129l.09.086.9.9Zm1.162,8.709v-.734l.013-.162a5.549,5.549,0,0,0-.206-2.51,7.635,7.635,0,0,0-1.516-2.6l-1.913-1.913a10.127,10.127,0,0,0-3.359-1.707q-.372-.113-.75-.2h0q-.374-.084-.755-.137l-.029,0-.139-.029a14.233,14.233,0,0,0-7.191-.044h0c-.332.084-.677.185-1.026.3a7.747,7.747,0,0,0-3.563,2.892h0a6.005,6.005,0,0,0-.366.713,5.827,5.827,0,0,0-.252.765l0,.017a5.482,5.482,0,0,0,.025,2.867,7.931,7.931,0,0,0,1.738,3.014l.013.008a13.44,13.44,0,0,0,4.566,3.391,15.218,15.218,0,0,0,2.34.851l.013,0a12.637,12.637,0,0,0,6.047.183,11.882,11.882,0,0,0,2.085-.685l.038-.017a7.755,7.755,0,0,0,3.618-2.92h0a4.86,4.86,0,0,0,.582-1.347Zm-3.458-37.329a7.053,7.053,0,0,1-5.19,1.73h-1.438V92.992c0-.288.288-.576,1.15-.576a7.09,7.09,0,0,1,5.476,2.594,8.814,8.814,0,0,1,2.016,5.764,7.157,7.157,0,0,1-2.014,5.474Zm92.788-16.713V91.84h-2.016l-.866.29-.288.864v26.222c0,3.746.574,5.764,1.442,5.764h3.17v2.306H288.886V124.98h2.59a.619.619,0,0,0,.574-.576V108.267H279.372v10.949c0,3.746.578,5.764,1.442,5.764h3.458v2.306H266.7V124.98h2.594a.619.619,0,0,0,.574-.576V95.583a5.9,5.9,0,0,0-.574-3.17,1.508,1.508,0,0,0-1.154-.576h-2.882V89.532h17.579v2.306h-2.308l-.866.29-.288.864v12.677h12.677V95.583a5.9,5.9,0,0,0-.574-3.17,1.494,1.494,0,0,0-1.154-.576h-2.882V89.532h17.293v0Zm6.337,34a21.017,21.017,0,0,0,14.119,4.9c7.206,0,12.681-2.594,16.425-7.491a20.336,20.336,0,0,0,4.61-13.545c0-5.764-1.728-10.373-5.474-13.831a19.866,19.866,0,0,0-14.123-5.188c-7.2,0-12.677,2.594-16.425,7.494a21.413,21.413,0,0,0-4.61,13.543C305.594,115.468,307.326,120.078,311.07,123.536Zm34.294-34V91.84h2.878a1.5,1.5,0,0,1,1.154.576,5.869,5.869,0,0,1,.578,3.17V124.4a.623.623,0,0,1-.578.576h-2.59v2.306H364.38v-2.306h-3.458c-.866,0-1.442-2.018-1.442-5.764V109.7l4.9.576q6.486,0,10.375-3.458a9.688,9.688,0,0,0,3.17-6.916,8.761,8.761,0,0,0-2.882-6.628c-2.3-2.592-5.764-3.746-10.375-3.746h-19.3Zm-21.037,1.44c4.324,0,7.779,2.594,9.8,8.07a34.4,34.4,0,0,1,2.594,13.543,19.7,19.7,0,0,1-1.728,8.933,8.357,8.357,0,0,1-7.491,4.324c-4.324,0-7.779-2.592-10.087-7.779a40.874,40.874,0,0,1-2.3-13.831,19.22,19.22,0,0,1,1.728-8.645c1.442-3.172,4.032-4.614,7.494-4.614ZM366.4,95.01a9.042,9.042,0,0,1,2.02,6.052,6.092,6.092,0,0,1-1.728,4.61,6.321,6.321,0,0,1-4.9,2.018l-2.3-.576V92.992c0-.288.574-.576,1.442-.576A6.69,6.69,0,0,1,366.4,95.01ZM228.657,139.385l.574-1.442,1.442-.576a2.211,2.211,0,0,1,1.442.576l.578,1.442a2.222,2.222,0,0,1-.578,1.442,2.192,2.192,0,0,1-1.442.576l-1.442-.576a2.216,2.216,0,0,1-.574-1.442ZM12.252,80.313a2.434,2.434,0,0,1,1.728.576,8.1,8.1,0,0,1,.864,4.322v38.325c0,.288-.576.576-1.442.576l-3.746.288v2.882H27.235l8.067-.288a26.038,26.038,0,0,0,7.779-1.73A14.238,14.238,0,0,0,50,120.942a12.641,12.641,0,0,0,2.594-7.782q0-10.805-13.833-13.833a20.586,20.586,0,0,0,7.491-3.17,9.566,9.566,0,0,0,4.034-7.782,10.6,10.6,0,0,0-2.306-6.052c-2.882-3.168-7.491-4.9-14.119-4.9H8.5v2.882h3.748Zm54.46,9.509-7.2,16.423c-4.324,10.375-6.628,16.425-7.206,17.867,0,.288-.288.574-.576.864h-2.88v2.306H60.663v-2.306H56.339l-.288-.864a25.278,25.278,0,0,1,1.442-5.474l1.728-4.324H70.46c2.306,6.628,3.46,9.8,3.46,10.085s-.288.576-.866.576H70.46v2.306H87.751v-2.306h-1.73a1.583,1.583,0,0,1-1.73-1.154L82.275,119.5l-6.342-16.713c-2.592-6.628-3.746-10.375-3.746-10.951l.864-1.152c.288-.288.576-.576.576-.864a.766.766,0,0,0-.866-.866l-6.05.868ZM29.253,80.889a9.552,9.552,0,0,1,7.2,2.882,10.206,10.206,0,0,1,2.882,7.491,9.62,9.62,0,0,1-.864,4.322,5.6,5.6,0,0,1-3.458,2.882l-7.779-.576V81.752C27.235,81.176,27.811,80.889,29.253,80.889Zm-2.018,30.546V100.773c4.9,0,8.357,1.442,10.661,4.61a12.642,12.642,0,0,1,2.594,7.782,11.287,11.287,0,0,1-2.594,7.491,9.814,9.814,0,0,1-7.2,3.17l-1.73-.288a2.241,2.241,0,0,1-1.152-1.152,68.375,68.375,0,0,1-.576-10.951Zm32.85.286L65.27,99.907l4.324,11.813ZM92.07,95.583V124.4a.62.62,0,0,1-.576.576H88.9v2.306H106.48v-2.306h-3.458c-.864,0-1.442-2.018-1.442-5.764v-8.933h2.882l4.034,8.933a28.33,28.33,0,0,0,4.61,7.206,3.96,3.96,0,0,0,1.154.864H125.5v-2.306a4.623,4.623,0,0,1-3.17-1.442c-3.17-3.17-6.34-8.357-10.085-14.985a8.2,8.2,0,0,0,6.052-3.458,6.231,6.231,0,0,0,1.728-4.034c0-4.9-2.016-8.067-6.34-10.085a17.428,17.428,0,0,0-6.916-1.442H87.459v2.306h2.882a1.5,1.5,0,0,1,1.152.576,5.869,5.869,0,0,1,.578,3.172Zm10.949-3.168a6.548,6.548,0,0,1,5.188,2.594,8.814,8.814,0,0,1,2.016,5.764,8.3,8.3,0,0,1-1.73,5.474,8.053,8.053,0,0,1-5.188,1.73h-1.728V92.992C101.58,92.7,102.156,92.416,103.02,92.416Zm27.086,3.168V124.4a.62.62,0,0,1-.576.576h-2.594v2.306h12.679c5.474,0,9.509-.576,11.815-1.442,4.9-1.728,7.2-4.9,7.2-9.221q0-8.21-10.375-10.375a27.781,27.781,0,0,0,5.764-2.592,6.4,6.4,0,0,0,2.882-5.764,6.913,6.913,0,0,0-1.73-4.322c-2.016-2.594-5.764-4.034-10.661-4.034H125.494v2.306h2.882a1.507,1.507,0,0,1,1.154.576,5.882,5.882,0,0,1,.576,3.17Zm31.7-3.746h-2.884V89.532H189.18l-.576,6.052c-.288.576-.576.866-1.152.866s-.866-.288-.866-1.152l-.576-1.154-1.152-.864-4.9-.864h-6.628l-.288.864v12.391h3.17a22.711,22.711,0,0,0,6.052-.574,1.743,1.743,0,0,0,.864-1.73v-2.016h2.018v10.373h-2.018v-.866a2.746,2.746,0,0,0-.576-2.016,11.379,11.379,0,0,0-4.322-.576h-5.188v7.2a51.63,51.63,0,0,0,.288,7.782c.29.864.576,1.44,1.152,1.44l8.933-.574c3.17-.576,4.9-1.728,5.764-3.17l1.154-.866a.765.765,0,0,1,.864.866c0,.864-.576,2.88-1.73,6.34h-29.1v-2.306h2.594a.621.621,0,0,0,.576-.576V95.583a5.9,5.9,0,0,0-.576-3.17,1.506,1.506,0,0,0-1.152-.576Zm-16.425,13.545-5.764-.288v-12.1c0-.288.576-.576,1.442-.576a7.6,7.6,0,0,1,5.474,2.018,7.853,7.853,0,0,1,2.018,5.762,10.418,10.418,0,0,1-.576,3.17,3.678,3.678,0,0,1-2.594,2.018Zm-3.172,19.3-1.44-.288c-.288,0-.576-.288-.576-.864a36.721,36.721,0,0,1-.576-8.067V107.4a10.043,10.043,0,0,1,8.067,3.46,8.8,8.8,0,0,1,2.018,5.764A7.871,7.871,0,0,1,147.4,122.1a6.549,6.549,0,0,1-5.188,2.592Z" transform="translate(0 0)" fill="#e6a163" fill-rule="evenodd"/></g><g transform="translate(751 92)"><path d="M214.24,134.867l8.942.483-6.625-8.933a65.114,65.114,0,0,1-4.61-7.206l-3.748-8.933h-2.878v8.933c0,3.746.574,5.764,1.438,5.764h3.46v2.306H192.64v-2.306h2.594a.619.619,0,0,0,.574-.576V95.583a5.9,5.9,0,0,0-.574-3.17,2.207,2.207,0,0,0-1.442-.576H191.2V89.532h19.019a18.845,18.845,0,0,1,7.2,1.442c4.036,2.018,6.052,5.188,6.052,10.085a7.617,7.617,0,0,1-1.442,4.034,8.777,8.777,0,0,1-6.34,3.458c1.154,2.018,6.918,11.239,17.579,27.374l8.641.29-6.34-7.491c-3.744-4.9-5.759-8.645-6.052-10.661a10.513,10.513,0,0,1,2.02-7.491c1.728-2.018,4.32-2.882,7.491-2.882,4.324,0,7.2,3.746,8.641,11.525-2.3-5.764-6.052-7.779-10.949-5.764a4.883,4.883,0,0,0-2.882,2.306l-.288,1.73a6.114,6.114,0,0,0,2.882,5.188,11.533,11.533,0,0,0,7.779,2.592,13.1,13.1,0,0,0,7.779-2.306,9.822,9.822,0,0,0,3.17-7.2,6.936,6.936,0,0,0-2.016-5.186,20.669,20.669,0,0,0-5.19-2.882l-6.625-2.306a28.222,28.222,0,0,1-6.052-3.458,13.436,13.436,0,0,1,1.44-22.186,22.416,22.416,0,0,1,13.257-3.746,36.664,36.664,0,0,1,10.661,1.44l.574,6.918c.288,1.152-.288,1.73-1.154,1.73s-1.438-.576-1.728-1.73a5.7,5.7,0,0,0-3.17-3.746,12.968,12.968,0,0,0-11.813.576,7.136,7.136,0,0,0-3.174,6.052,5.187,5.187,0,0,0,2.02,4.324,14.812,14.812,0,0,0,4.9,2.592l6.625,2.594a26.522,26.522,0,0,1,6.918,3.746,16.346,16.346,0,0,1,3.458,5.186,15.462,15.462,0,0,1,1.442,6.052q0,9.941-6.913,13.833c-4.036,2.016-10.375,3.17-18.733,3.17-.574,0-.288.864.866,2.306a17.141,17.141,0,0,0,4.324,5.188l22.764,1.152,19.017,2.306q-.432,1.3-34.58,2.594a35.361,35.361,0,0,0,9.8,4.034,37.935,37.935,0,0,0,16.135,0,59.4,59.4,0,0,0,11.241-5.188,93.173,93.173,0,0,1,12.391-6.052,60.242,60.242,0,0,1,19.883-2.882c5.764,0,10.375.866,13.831,2.882,2.882,1.728,4.61,3.746,5.19,6.342a7.717,7.717,0,0,1-1.442,6.625c-1.732,2.018-4.324,2.882-7.491,2.882,5.474-7.779.862-12.679-13.831-14.407a46.288,46.288,0,0,0-12.681.864,33.581,33.581,0,0,0-10.083,3.746L286,145.443a31.982,31.982,0,0,1-9.8,3.17,40.412,40.412,0,0,1-18.441-1.728,55.265,55.265,0,0,1-9.221-4.61l-10.949.288,22.472,34.29-17-16.423c-.862,0-5.474-5.476-13.831-16.715l-.574-.864-10.949.563v.3c0,.019-.034.263-.038.28l0,.017a8.047,8.047,0,0,1-.887,2.115l0,0a10.038,10.038,0,0,1-4.669,3.828l-.034.017a13.564,13.564,0,0,1-2.52.818,14.9,14.9,0,0,1-7.143-.2l-.013,0a17.537,17.537,0,0,1-2.7-.986,15.79,15.79,0,0,1-5.354-3.985h0a10.117,10.117,0,0,1-2.215-3.895,7.758,7.758,0,0,1-.046-4.048l0-.017a7.571,7.571,0,0,1,.889-2.112l0,0a10.024,10.024,0,0,1,4.664-3.828l.1-.042.038-.013c.374-.122.771-.238,1.2-.345v0q.615-.155,1.265-.265a16.427,16.427,0,0,1,7.042.307,13.839,13.839,0,0,1,1.787.4,12.618,12.618,0,0,1,4.16,2.129l.09.086.9.9Zm1.162,8.709v-.734l.013-.162a5.549,5.549,0,0,0-.206-2.51,7.635,7.635,0,0,0-1.516-2.6l-1.913-1.913a10.127,10.127,0,0,0-3.359-1.707q-.372-.113-.75-.2h0q-.374-.084-.755-.137l-.029,0-.139-.029a14.233,14.233,0,0,0-7.191-.044h0c-.332.084-.677.185-1.026.3a7.747,7.747,0,0,0-3.563,2.892h0a6.005,6.005,0,0,0-.366.713,5.827,5.827,0,0,0-.252.765l0,.017a5.482,5.482,0,0,0,.025,2.867,7.931,7.931,0,0,0,1.738,3.014l.013.008a13.44,13.44,0,0,0,4.566,3.391,15.218,15.218,0,0,0,2.34.851l.013,0a12.637,12.637,0,0,0,6.047.183,11.882,11.882,0,0,0,2.085-.685l.038-.017a7.755,7.755,0,0,0,3.618-2.92h0a4.86,4.86,0,0,0,.582-1.347Zm-3.458-37.329a7.053,7.053,0,0,1-5.19,1.73h-1.438V92.992c0-.288.288-.576,1.15-.576a7.09,7.09,0,0,1,5.476,2.594,8.814,8.814,0,0,1,2.016,5.764,7.157,7.157,0,0,1-2.014,5.474Zm92.788-16.713V91.84h-2.016l-.866.29-.288.864v26.222c0,3.746.574,5.764,1.442,5.764h3.17v2.306H288.886V124.98h2.59a.619.619,0,0,0,.574-.576V108.267H279.372v10.949c0,3.746.578,5.764,1.442,5.764h3.458v2.306H266.7V124.98h2.594a.619.619,0,0,0,.574-.576V95.583a5.9,5.9,0,0,0-.574-3.17,1.508,1.508,0,0,0-1.154-.576h-2.882V89.532h17.579v2.306h-2.308l-.866.29-.288.864v12.677h12.677V95.583a5.9,5.9,0,0,0-.574-3.17,1.494,1.494,0,0,0-1.154-.576h-2.882V89.532h17.293v0Zm6.337,34a21.017,21.017,0,0,0,14.119,4.9c7.206,0,12.681-2.594,16.425-7.491a20.336,20.336,0,0,0,4.61-13.545c0-5.764-1.728-10.373-5.474-13.831a19.866,19.866,0,0,0-14.123-5.188c-7.2,0-12.677,2.594-16.425,7.494a21.413,21.413,0,0,0-4.61,13.543C305.594,115.468,307.326,120.078,311.07,123.536Zm34.294-34V91.84h2.878a1.5,1.5,0,0,1,1.154.576,5.869,5.869,0,0,1,.578,3.17V124.4a.623.623,0,0,1-.578.576h-2.59v2.306H364.38v-2.306h-3.458c-.866,0-1.442-2.018-1.442-5.764V109.7l4.9.576q6.486,0,10.375-3.458a9.688,9.688,0,0,0,3.17-6.916,8.761,8.761,0,0,0-2.882-6.628c-2.3-2.592-5.764-3.746-10.375-3.746h-19.3Zm-21.037,1.44c4.324,0,7.779,2.594,9.8,8.07a34.4,34.4,0,0,1,2.594,13.543,19.7,19.7,0,0,1-1.728,8.933,8.357,8.357,0,0,1-7.491,4.324c-4.324,0-7.779-2.592-10.087-7.779a40.874,40.874,0,0,1-2.3-13.831,19.22,19.22,0,0,1,1.728-8.645c1.442-3.172,4.032-4.614,7.494-4.614ZM366.4,95.01a9.042,9.042,0,0,1,2.02,6.052,6.092,6.092,0,0,1-1.728,4.61,6.321,6.321,0,0,1-4.9,2.018l-2.3-.576V92.992c0-.288.574-.576,1.442-.576A6.69,6.69,0,0,1,366.4,95.01ZM228.657,139.385l.574-1.442,1.442-.576a2.211,2.211,0,0,1,1.442.576l.578,1.442a2.222,2.222,0,0,1-.578,1.442,2.192,2.192,0,0,1-1.442.576l-1.442-.576a2.216,2.216,0,0,1-.574-1.442ZM12.252,80.313a2.434,2.434,0,0,1,1.728.576,8.1,8.1,0,0,1,.864,4.322v38.325c0,.288-.576.576-1.442.576l-3.746.288v2.882H27.235l8.067-.288a26.038,26.038,0,0,0,7.779-1.73A14.238,14.238,0,0,0,50,120.942a12.641,12.641,0,0,0,2.594-7.782q0-10.805-13.833-13.833a20.586,20.586,0,0,0,7.491-3.17,9.566,9.566,0,0,0,4.034-7.782,10.6,10.6,0,0,0-2.306-6.052c-2.882-3.168-7.491-4.9-14.119-4.9H8.5v2.882h3.748Zm54.46,9.509-7.2,16.423c-4.324,10.375-6.628,16.425-7.206,17.867,0,.288-.288.574-.576.864h-2.88v2.306H60.663v-2.306H56.339l-.288-.864a25.278,25.278,0,0,1,1.442-5.474l1.728-4.324H70.46c2.306,6.628,3.46,9.8,3.46,10.085s-.288.576-.866.576H70.46v2.306H87.751v-2.306h-1.73a1.583,1.583,0,0,1-1.73-1.154L82.275,119.5l-6.342-16.713c-2.592-6.628-3.746-10.375-3.746-10.951l.864-1.152c.288-.288.576-.576.576-.864a.766.766,0,0,0-.866-.866l-6.05.868ZM29.253,80.889a9.552,9.552,0,0,1,7.2,2.882,10.206,10.206,0,0,1,2.882,7.491,9.62,9.62,0,0,1-.864,4.322,5.6,5.6,0,0,1-3.458,2.882l-7.779-.576V81.752C27.235,81.176,27.811,80.889,29.253,80.889Zm-2.018,30.546V100.773c4.9,0,8.357,1.442,10.661,4.61a12.642,12.642,0,0,1,2.594,7.782,11.287,11.287,0,0,1-2.594,7.491,9.814,9.814,0,0,1-7.2,3.17l-1.73-.288a2.241,2.241,0,0,1-1.152-1.152,68.375,68.375,0,0,1-.576-10.951Zm32.85.286L65.27,99.907l4.324,11.813ZM92.07,95.583V124.4a.62.62,0,0,1-.576.576H88.9v2.306H106.48v-2.306h-3.458c-.864,0-1.442-2.018-1.442-5.764v-8.933h2.882l4.034,8.933a28.33,28.33,0,0,0,4.61,7.206,3.96,3.96,0,0,0,1.154.864H125.5v-2.306a4.623,4.623,0,0,1-3.17-1.442c-3.17-3.17-6.34-8.357-10.085-14.985a8.2,8.2,0,0,0,6.052-3.458,6.231,6.231,0,0,0,1.728-4.034c0-4.9-2.016-8.067-6.34-10.085a17.428,17.428,0,0,0-6.916-1.442H87.459v2.306h2.882a1.5,1.5,0,0,1,1.152.576,5.869,5.869,0,0,1,.578,3.172Zm10.949-3.168a6.548,6.548,0,0,1,5.188,2.594,8.814,8.814,0,0,1,2.016,5.764,8.3,8.3,0,0,1-1.73,5.474,8.053,8.053,0,0,1-5.188,1.73h-1.728V92.992C101.58,92.7,102.156,92.416,103.02,92.416Zm27.086,3.168V124.4a.62.62,0,0,1-.576.576h-2.594v2.306h12.679c5.474,0,9.509-.576,11.815-1.442,4.9-1.728,7.2-4.9,7.2-9.221q0-8.21-10.375-10.375a27.781,27.781,0,0,0,5.764-2.592,6.4,6.4,0,0,0,2.882-5.764,6.913,6.913,0,0,0-1.73-4.322c-2.016-2.594-5.764-4.034-10.661-4.034H125.494v2.306h2.882a1.507,1.507,0,0,1,1.154.576,5.882,5.882,0,0,1,.576,3.17Zm31.7-3.746h-2.884V89.532H189.18l-.576,6.052c-.288.576-.576.866-1.152.866s-.866-.288-.866-1.152l-.576-1.154-1.152-.864-4.9-.864h-6.628l-.288.864v12.391h3.17a22.711,22.711,0,0,0,6.052-.574,1.743,1.743,0,0,0,.864-1.73v-2.016h2.018v10.373h-2.018v-.866a2.746,2.746,0,0,0-.576-2.016,11.379,11.379,0,0,0-4.322-.576h-5.188v7.2a51.63,51.63,0,0,0,.288,7.782c.29.864.576,1.44,1.152,1.44l8.933-.574c3.17-.576,4.9-1.728,5.764-3.17l1.154-.866a.765.765,0,0,1,.864.866c0,.864-.576,2.88-1.73,6.34h-29.1v-2.306h2.594a.621.621,0,0,0,.576-.576V95.583a5.9,5.9,0,0,0-.576-3.17,1.506,1.506,0,0,0-1.152-.576Zm-16.425,13.545-5.764-.288v-12.1c0-.288.576-.576,1.442-.576a7.6,7.6,0,0,1,5.474,2.018,7.853,7.853,0,0,1,2.018,5.762,10.418,10.418,0,0,1-.576,3.17,3.678,3.678,0,0,1-2.594,2.018Zm-3.172,19.3-1.44-.288c-.288,0-.576-.288-.576-.864a36.721,36.721,0,0,1-.576-8.067V107.4a10.043,10.043,0,0,1,8.067,3.46,8.8,8.8,0,0,1,2.018,5.764A7.871,7.871,0,0,1,147.4,122.1a6.549,6.549,0,0,1-5.188,2.592Z" transform="translate(0 0)" fill-rule="evenodd"/></g></g><path d="M845.175,123.34s5.388,2.944,5.075,7.259a7.969,7.969,0,0,1-4.106,6.207S852.414,130.244,845.175,123.34Z" fill="#979797"/><path d="M845.175,123.34a21.274,21.274,0,0,1,5.075,14.192c-.314,8.445-4.106,12.136-4.106,12.136S852.414,136.839,845.175,123.34Z" transform="translate(227 1.138)" fill="#979797"/><path d="M850.263,123.34a21.274,21.274,0,0,0-5.075,14.192c.314,8.445,4.106,12.136,4.106,12.136S843.024,136.839,850.263,123.34Z" transform="translate(193 3.138)" fill="#979797"/><path d="M845.175,123.34s5.388,2.944,5.075,7.259a7.969,7.969,0,0,1-4.106,6.207S852.414,130.244,845.175,123.34Z" transform="translate(-70 -11)" fill="#979797"/><path d="M845.175,123.34s4.185,2.287,3.941,5.638a6.189,6.189,0,0,1-3.189,4.821S850.8,128.7,845.175,123.34Z" transform="translate(38.791 0.407)" fill="#979797"/><path d="M845.175,123.34s4.185,2.871,3.941,7.079a7.809,7.809,0,0,1-3.189,6.054A10.569,10.569,0,0,0,845.175,123.34Z" transform="translate(104.791 0.407)" fill="#979797"/><path d="M845.175,123.34s4.185,2.871,3.941,7.079a7.809,7.809,0,0,1-3.189,6.054A10.569,10.569,0,0,0,845.175,123.34Z" transform="translate(259.791 0.407)" fill="#979797"/><path d="M845.175,123.34s5.388,3.728,5.075,9.193a10.154,10.154,0,0,1-4.106,7.861A13.815,13.815,0,0,0,845.175,123.34Z" transform="translate(-68 11.413)" fill="#979797"/><path d="M845.175,123.34s4.185,2.9,3.941,7.14a7.886,7.886,0,0,1-3.189,6.105A10.73,10.73,0,0,0,845.175,123.34Z" transform="translate(40.345 16.814)" fill="#979797"/><path d="M802.727,122.032l-.592,1.259,7.213,32.554h-1.394l-6.969-32.973Z" transform="translate(-8.796 127.666) rotate(-9)" fill="#979797"/><path d="M843.421,140.385s8.838,14.878,10.434,15.588-2.873.319-2.873.319l-8.869-15.538Z" fill="#979797"/><path d="M844.217,139.978s17.1,26.754,17.146,26.773-1.056-.127-1.056-.127l-17.25-26.646Z" transform="translate(103)" fill="#979797"/><path d="M843.109,140.72s36.166,53.656,36.252,53.691-.841-.639-.841-.639l-36.1-53.278Z" transform="matrix(0.53, -0.848, 0.848, 0.53, 384.547, 813.81)" fill="#979797"/><path d="M844.217,139.978s18.147,27.445,18.191,27.464l-.672-.273-18.68-27.191Z" transform="translate(125 34)" fill="#979797"/><path d="M905.613,155.959s-1.6-.435-1.612-1.788,0-30.044,0-30.044.16-1.571,1.491-1.635-2.451,0-2.451,0v33.466Z" fill="#979797"/><path d="M905.613,155.959s-1.6-.435-1.612-1.788,0-30.044,0-30.044.16-1.571,1.491-1.635-2.451,0-2.451,0v33.466Z" transform="translate(186)" fill="#979797"/><path d="M905.613,155.959s-1.6-.435-1.612-1.788,0-30.044,0-30.044.16-1.571,1.491-1.635-2.451,0-2.451,0v33.466Z" transform="translate(32)" fill="#979797"/><path d="M905.613,155.959s-1.6-.435-1.612-1.788,0-30.044,0-30.044.16-1.571,1.491-1.635-2.451,0-2.451,0v33.466Z" transform="translate(106)" fill="#979797"/><path d="M905.613,155.959s-1.6-.435-1.612-1.788,0-30.044,0-30.044.16-1.571,1.491-1.635-2.451,0-2.451,0v33.466Z" transform="translate(129)" fill="#979797"/><path d="M905.613,155.959s-1.6-.435-1.612-1.788,0-30.044,0-30.044.16-1.571,1.491-1.635-2.451,0-2.451,0v33.466Z" transform="translate(-71)" fill="#595959"/><path d="M905.613,166.519A2.558,2.558,0,0,1,904,164.168c-.013-1.779,0-39.516,0-39.516s.16-2.067,1.491-2.15-2.451,0-2.451,0v44.017Z" transform="translate(-146 -11)" fill="#979797"/><path d="M972.595,158.821s11.835.278,17.451-3.156,6.633-9.632,6.548-13.074-2.789-10.132-8.4-12.684-16.293-4.166-17.082-11.313,7.184-9.018,8.346-9.018,9.619-.96,11.289,4.563.9-.591.9-.591-2.387-6.248-12.461-5.149-9.791,8.174-9.6,10.753,2.618,6.72,7.384,8.168a85.267,85.267,0,0,1,11.223,4.14c4.294,1.87,6.977,7.241,7.262,11.133s-.374,9.212-6.046,12.289-16.811,3.58-16.811,3.58Z" fill="#979797"/></g><text transform="translate(735 75)" fill="#a16a38" font-size="33" font-family="Alice-Regular, Alice"><tspan x="0" y="0">Brian Demonstrativo</tspan></text></g></svg>